<mxfile host="65bd71144e">
    <diagram id="S1X6EvKpPox0rGWvEWUs" name="第 1 页">
        <mxGraphModel dx="1591" dy="422" grid="1" gridSize="10" guides="1" tooltips="1" connect="1" arrows="1" fold="1" page="1" pageScale="1" pageWidth="827" pageHeight="1169" math="0" shadow="0">
            <root>
                <mxCell id="0"/>
                <mxCell id="1" parent="0"/>
                <mxCell id="2" value="&lt;p class=&quot;MsoNormal&quot; style=&quot;margin: 0pt 0pt 0.0001pt ; text-align: justify ; font-family: &amp;#34;times new roman&amp;#34;&quot;&gt;&lt;font&gt;&lt;span&gt;&lt;font style=&quot;font-size: 18px&quot;&gt;Ⅲ&lt;/font&gt;&lt;/span&gt;&lt;span style=&quot;font-size: 18px&quot;&gt;子类&lt;/span&gt;&lt;/font&gt;&lt;/p&gt;" style="ellipse;whiteSpace=wrap;html=1;" parent="1" vertex="1">
                    <mxGeometry x="300" y="40" width="120" height="50" as="geometry"/>
                </mxCell>
                <mxCell id="3" value="&lt;p class=&quot;MsoNormal&quot; style=&quot;margin: 0pt 0pt 0.0001pt ; text-align: justify ; font-family: &amp;#34;times new roman&amp;#34;&quot;&gt;&lt;font style=&quot;font-size: 14px&quot;&gt;海岸线距离&lt;/font&gt;&lt;/p&gt;" style="ellipse;whiteSpace=wrap;html=1;" parent="1" vertex="1">
                    <mxGeometry y="150" width="120" height="50" as="geometry"/>
                </mxCell>
                <mxCell id="4" value="&lt;p class=&quot;MsoNormal&quot; style=&quot;margin: 0pt 0pt 0.0001pt ; text-align: justify ; font-family: &amp;#34;times new roman&amp;#34;&quot;&gt;&lt;font style=&quot;font-size: 14px&quot;&gt;相对位置&lt;/font&gt;&lt;/p&gt;" style="ellipse;whiteSpace=wrap;html=1;" parent="1" vertex="1">
                    <mxGeometry x="290" y="160" width="120" height="50" as="geometry"/>
                </mxCell>
                <mxCell id="5" value="" style="endArrow=none;html=1;fontSize=14;exitX=0.5;exitY=0;exitDx=0;exitDy=0;" parent="1" source="3" edge="1">
                    <mxGeometry width="50" height="50" relative="1" as="geometry">
                        <mxPoint x="310" y="140" as="sourcePoint"/>
                        <mxPoint x="360" y="90" as="targetPoint"/>
                    </mxGeometry>
                </mxCell>
                <mxCell id="6" value="" style="endArrow=none;html=1;fontSize=14;exitX=0.5;exitY=0;exitDx=0;exitDy=0;" parent="1" source="4" edge="1">
                    <mxGeometry width="50" height="50" relative="1" as="geometry">
                        <mxPoint x="310" y="160" as="sourcePoint"/>
                        <mxPoint x="360" y="90" as="targetPoint"/>
                    </mxGeometry>
                </mxCell>
                <mxCell id="9" value="&lt;p class=&quot;MsoNormal&quot; style=&quot;margin: 0pt 0pt 0.0001pt ; text-align: justify ; font-family: &amp;#34;times new roman&amp;#34;&quot;&gt;&lt;span style=&quot;font-size: 14px&quot;&gt;影响&lt;/span&gt;&lt;/p&gt;&lt;p class=&quot;MsoNormal&quot; style=&quot;margin: 0pt 0pt 0.0001pt ; text-align: justify ; font-family: &amp;#34;times new roman&amp;#34;&quot;&gt;&lt;span style=&quot;font-size: 14px&quot;&gt;0.3km&amp;lt;=d&amp;lt;=1.2km&lt;/span&gt;&lt;/p&gt;" style="ellipse;whiteSpace=wrap;html=1;" parent="1" vertex="1">
                    <mxGeometry x="-100" y="320" width="120" height="50" as="geometry"/>
                </mxCell>
                <mxCell id="10" value="&lt;p class=&quot;MsoNormal&quot; style=&quot;margin: 0pt 0pt 0.0001pt ; text-align: justify ; font-family: &amp;#34;times new roman&amp;#34;&quot;&gt;&lt;span style=&quot;font-size: 14px&quot;&gt;轻度&lt;/span&gt;&lt;/p&gt;&lt;p class=&quot;MsoNormal&quot; style=&quot;margin: 0pt 0pt 0.0001pt ; text-align: justify ; font-family: &amp;#34;times new roman&amp;#34;&quot;&gt;&lt;span style=&quot;font-size: 14px&quot;&gt;0.1km&amp;lt;d&amp;lt;0.3km&lt;/span&gt;&lt;/p&gt;" style="ellipse;whiteSpace=wrap;html=1;" parent="1" vertex="1">
                    <mxGeometry x="-10" y="350" width="120" height="50" as="geometry"/>
                </mxCell>
                <mxCell id="11" value="&lt;p class=&quot;MsoNormal&quot; style=&quot;margin: 0pt 0pt 0.0001pt ; text-align: justify ; font-family: &amp;#34;times new roman&amp;#34;&quot;&gt;&lt;span style=&quot;font-size: 14px&quot;&gt;重度&lt;/span&gt;&lt;/p&gt;&lt;p class=&quot;MsoNormal&quot; style=&quot;margin: 0pt 0pt 0.0001pt ; text-align: justify ; font-family: &amp;#34;times new roman&amp;#34;&quot;&gt;&lt;span style=&quot;font-size: 14px&quot;&gt;d&amp;lt;=0.1km&lt;/span&gt;&lt;/p&gt;" style="ellipse;whiteSpace=wrap;html=1;" parent="1" vertex="1">
                    <mxGeometry x="80" y="320" width="120" height="50" as="geometry"/>
                </mxCell>
                <mxCell id="13" value="" style="endArrow=none;html=1;fontSize=14;entryX=0.5;entryY=1;entryDx=0;entryDy=0;exitX=0.5;exitY=0;exitDx=0;exitDy=0;" parent="1" source="9" target="3" edge="1">
                    <mxGeometry width="50" height="50" relative="1" as="geometry">
                        <mxPoint x="100" y="230" as="sourcePoint"/>
                        <mxPoint x="150" y="180" as="targetPoint"/>
                    </mxGeometry>
                </mxCell>
                <mxCell id="14" value="" style="endArrow=none;html=1;fontSize=14;entryX=0.5;entryY=1;entryDx=0;entryDy=0;exitX=0.5;exitY=0;exitDx=0;exitDy=0;" parent="1" source="10" target="3" edge="1">
                    <mxGeometry width="50" height="50" relative="1" as="geometry">
                        <mxPoint x="160" y="250" as="sourcePoint"/>
                        <mxPoint x="210" y="200" as="targetPoint"/>
                    </mxGeometry>
                </mxCell>
                <mxCell id="15" value="" style="endArrow=none;html=1;fontSize=14;entryX=0.5;entryY=1;entryDx=0;entryDy=0;exitX=0.5;exitY=0;exitDx=0;exitDy=0;" parent="1" source="11" target="3" edge="1">
                    <mxGeometry width="50" height="50" relative="1" as="geometry">
                        <mxPoint x="200" y="220" as="sourcePoint"/>
                        <mxPoint x="250" y="170" as="targetPoint"/>
                    </mxGeometry>
                </mxCell>
                <mxCell id="18" value="&lt;p class=&quot;MsoNormal&quot; style=&quot;margin: 0pt 0pt 0.0001pt ; text-align: justify ; font-family: &amp;#34;times new roman&amp;#34;&quot;&gt;&lt;span style=&quot;font-size: 14px&quot;&gt;水下&lt;/span&gt;&lt;/p&gt;&lt;p class=&quot;MsoNormal&quot; style=&quot;margin: 0pt 0pt 0.0001pt ; text-align: justify ; font-family: &amp;#34;times new roman&amp;#34;&quot;&gt;&lt;span style=&quot;font-size: 14px&quot;&gt;d&amp;lt;l-1m&lt;/span&gt;&lt;/p&gt;" style="ellipse;whiteSpace=wrap;html=1;" parent="1" vertex="1">
                    <mxGeometry x="170" y="280" width="120" height="50" as="geometry"/>
                </mxCell>
                <mxCell id="19" value="&lt;p class=&quot;MsoNormal&quot; style=&quot;margin: 0pt 0pt 0.0001pt ; text-align: justify ; font-family: &amp;#34;times new roman&amp;#34;&quot;&gt;&lt;span style=&quot;font-size: 14px&quot;&gt;大气&lt;/span&gt;&lt;/p&gt;&lt;p class=&quot;MsoNormal&quot; style=&quot;margin: 0pt 0pt 0.0001pt ; text-align: justify ; font-family: &amp;#34;times new roman&amp;#34;&quot;&gt;&lt;span style=&quot;font-size: 14px&quot;&gt;d&amp;gt;h+1.5m&lt;/span&gt;&lt;span style=&quot;font-size: 14px&quot;&gt;&lt;br&gt;&lt;/span&gt;&lt;/p&gt;" style="ellipse;whiteSpace=wrap;html=1;" parent="1" vertex="1">
                    <mxGeometry x="410" y="280" width="120" height="50" as="geometry"/>
                </mxCell>
                <mxCell id="21" value="" style="endArrow=none;html=1;fontSize=14;entryX=0.5;entryY=1;entryDx=0;entryDy=0;exitX=0.5;exitY=0;exitDx=0;exitDy=0;" parent="1" source="18" target="4" edge="1">
                    <mxGeometry width="50" height="50" relative="1" as="geometry">
                        <mxPoint x="410" y="220" as="sourcePoint"/>
                        <mxPoint x="460" y="170" as="targetPoint"/>
                    </mxGeometry>
                </mxCell>
                <mxCell id="22" value="" style="endArrow=none;html=1;fontSize=14;entryX=0.5;entryY=1;entryDx=0;entryDy=0;exitX=0.447;exitY=-0.03;exitDx=0;exitDy=0;exitPerimeter=0;" parent="1" source="19" target="4" edge="1">
                    <mxGeometry width="50" height="50" relative="1" as="geometry">
                        <mxPoint x="670" y="200" as="sourcePoint"/>
                        <mxPoint x="720" y="150" as="targetPoint"/>
                    </mxGeometry>
                </mxCell>
                <mxCell id="23" value="&lt;p class=&quot;MsoNormal&quot; style=&quot;margin: 0pt 0pt 0.0001pt ; text-align: justify ; font-family: &amp;#34;times new roman&amp;#34;&quot;&gt;&lt;font style=&quot;font-size: 14px&quot;&gt;年平均温度&lt;/font&gt;&lt;/p&gt;" style="ellipse;whiteSpace=wrap;html=1;" parent="1" vertex="1">
                    <mxGeometry x="520" y="160" width="120" height="50" as="geometry"/>
                </mxCell>
                <mxCell id="24" value="&lt;p class=&quot;MsoNormal&quot; style=&quot;margin: 0pt 0pt 0.0001pt ; text-align: justify ; font-family: &amp;#34;times new roman&amp;#34;&quot;&gt;&lt;span style=&quot;font-size: 14px&quot;&gt;非炎热&lt;/span&gt;&lt;/p&gt;&lt;p class=&quot;MsoNormal&quot; style=&quot;margin: 0pt 0pt 0.0001pt ; text-align: justify ; font-family: &amp;#34;times new roman&amp;#34;&quot;&gt;&lt;span style=&quot;font-size: 14px&quot;&gt;t&amp;lt;=20&lt;/span&gt;&lt;span style=&quot;font-family: &amp;#34;ar pl ukai cn&amp;#34;&quot;&gt;&lt;font style=&quot;font-size: 14px&quot;&gt;℃&lt;/font&gt;&lt;/span&gt;&lt;/p&gt;" style="ellipse;whiteSpace=wrap;html=1;" parent="1" vertex="1">
                    <mxGeometry x="500" y="340" width="120" height="50" as="geometry"/>
                </mxCell>
                <mxCell id="25" value="&lt;p class=&quot;MsoNormal&quot; style=&quot;margin: 0pt 0pt 0.0001pt ; text-align: justify ; font-family: &amp;#34;times new roman&amp;#34;&quot;&gt;&lt;span style=&quot;font-size: 14px&quot;&gt;炎热&lt;/span&gt;&lt;/p&gt;&lt;p class=&quot;MsoNormal&quot; style=&quot;margin: 0pt 0pt 0.0001pt ; text-align: justify ; font-family: &amp;#34;times new roman&amp;#34;&quot;&gt;&lt;span style=&quot;font-size: 14px&quot;&gt;t&amp;gt;20&lt;/span&gt;&lt;span&gt;&lt;font style=&quot;font-size: 12px&quot;&gt;℃&lt;/font&gt;&lt;/span&gt;&lt;/p&gt;" style="ellipse;whiteSpace=wrap;html=1;" parent="1" vertex="1">
                    <mxGeometry x="620" y="340" width="120" height="50" as="geometry"/>
                </mxCell>
                <mxCell id="27" value="" style="endArrow=none;html=1;fontSize=14;entryX=0.5;entryY=1;entryDx=0;entryDy=0;exitX=0.5;exitY=0;exitDx=0;exitDy=0;" parent="1" source="24" target="23" edge="1">
                    <mxGeometry width="50" height="50" relative="1" as="geometry">
                        <mxPoint x="560" y="290" as="sourcePoint"/>
                        <mxPoint x="610" y="270" as="targetPoint"/>
                    </mxGeometry>
                </mxCell>
                <mxCell id="28" value="" style="endArrow=none;html=1;fontSize=14;entryX=0.5;entryY=1;entryDx=0;entryDy=0;exitX=0.5;exitY=0;exitDx=0;exitDy=0;" parent="1" source="25" target="23" edge="1">
                    <mxGeometry width="50" height="50" relative="1" as="geometry">
                        <mxPoint x="480" y="290" as="sourcePoint"/>
                        <mxPoint x="530" y="240" as="targetPoint"/>
                    </mxGeometry>
                </mxCell>
                <mxCell id="30" value="" style="endArrow=none;html=1;fontSize=12;exitX=0.5;exitY=1;exitDx=0;exitDy=0;entryX=0.5;entryY=0;entryDx=0;entryDy=0;" parent="1" source="2" target="23" edge="1">
                    <mxGeometry width="50" height="50" relative="1" as="geometry">
                        <mxPoint x="470" y="160" as="sourcePoint"/>
                        <mxPoint x="520" y="110" as="targetPoint"/>
                    </mxGeometry>
                </mxCell>
                <mxCell id="31" value="&lt;p class=&quot;MsoNormal&quot; style=&quot;margin: 0pt 0pt 0.0001pt ; text-align: justify ; font-family: &amp;#34;times new roman&amp;#34;&quot;&gt;&lt;span style=&quot;font-size: 14px&quot;&gt;潮汐&lt;/span&gt;&lt;/p&gt;&lt;p class=&quot;MsoNormal&quot; style=&quot;margin: 0pt 0pt 0.0001pt ; text-align: justify ; font-family: &amp;#34;times new roman&amp;#34;&quot;&gt;&lt;span style=&quot;font-size: 14px&quot;&gt;l-1m&amp;lt;d&amp;lt;=h-1m&lt;/span&gt;&lt;span style=&quot;font-size: 14px&quot;&gt;&lt;br&gt;&lt;/span&gt;&lt;/p&gt;" style="ellipse;whiteSpace=wrap;html=1;" parent="1" vertex="1">
                    <mxGeometry x="230" y="330" width="120" height="50" as="geometry"/>
                </mxCell>
                <mxCell id="32" value="" style="endArrow=none;html=1;fontSize=14;entryX=0.5;entryY=1;entryDx=0;entryDy=0;exitX=0.5;exitY=0;exitDx=0;exitDy=0;" parent="1" source="31" target="4" edge="1">
                    <mxGeometry width="50" height="50" relative="1" as="geometry">
                        <mxPoint x="240" y="270" as="sourcePoint"/>
                        <mxPoint x="360" y="220" as="targetPoint"/>
                    </mxGeometry>
                </mxCell>
                <mxCell id="33" value="" style="endArrow=none;html=1;fontSize=14;entryX=0.5;entryY=1;entryDx=0;entryDy=0;exitX=0.5;exitY=0;exitDx=0;exitDy=0;" parent="1" source="34" target="4" edge="1">
                    <mxGeometry width="50" height="50" relative="1" as="geometry">
                        <mxPoint x="250" y="280" as="sourcePoint"/>
                        <mxPoint x="370" y="230" as="targetPoint"/>
                    </mxGeometry>
                </mxCell>
                <mxCell id="34" value="&lt;p class=&quot;MsoNormal&quot; style=&quot;margin: 0pt 0pt 0.0001pt ; text-align: justify ; font-family: &amp;#34;times new roman&amp;#34;&quot;&gt;&lt;span style=&quot;font-size: 14px&quot;&gt;浪溅&lt;/span&gt;&lt;/p&gt;&lt;p class=&quot;MsoNormal&quot; style=&quot;margin: 0pt 0pt 0.0001pt ; text-align: justify ; font-family: &amp;#34;times new roman&amp;#34;&quot;&gt;&lt;span style=&quot;font-size: 14px&quot;&gt;h-1m&amp;lt;d&amp;lt;=h+1.5m&lt;/span&gt;&lt;br&gt;&lt;/p&gt;" style="ellipse;whiteSpace=wrap;html=1;" parent="1" vertex="1">
                    <mxGeometry x="350" y="330" width="120" height="50" as="geometry"/>
                </mxCell>
            </root>
        </mxGraphModel>
    </diagram>
</mxfile>